<svg width="16" height="16" viewBox="0 0 16 16" fill="none" xmlns="http://www.w3.org/2000/svg">
<path d="M14 4.00004V13.3334C14 13.687 13.8595 14.0261 13.6095 14.2762C13.3594 14.5262 13.0203 14.6667 12.6667 14.6667H3.33333C2.97971 14.6667 2.64057 14.5262 2.39052 14.2762C2.14048 14.0261 2 13.687 2 13.3334V4.00004L4 1.33337H12L14 4.00004ZM2 4.00004H14M10.6667 6.66671C10.6667 7.37395 10.3857 8.05223 9.88562 8.55233C9.38552 9.05242 8.70724 9.33337 8 9.33337C7.29276 9.33337 6.61448 9.05242 6.11438 8.55233C5.61428 8.05223 5.33333 7.37395 5.33333 6.66671" stroke="white" stroke-linecap="round" stroke-linejoin="round"/>
</svg>
