<svg width="32" height="32" viewBox="0 0 32 32" fill="none" xmlns="http://www.w3.org/2000/svg">
<g clip-path="url(#clip0_9_1376)">
<path d="M10.0002 16C10.0002 14.0222 10.5866 12.0888 11.6855 10.4443C12.7843 8.79981 14.3461 7.51809 16.1733 6.76121C18.0006 6.00433 20.0112 5.8063 21.9511 6.19215C23.8909 6.578 25.6727 7.53041 27.0712 8.92894C28.4697 10.3275 29.4222 12.1093 29.808 14.0491C30.1939 15.9889 29.9958 17.9996 29.239 19.8268C28.4821 21.6541 27.2003 23.2159 25.5559 24.3147C23.9114 25.4135 21.978 26 20.0002 26H9.00015C8.0076 25.9988 7.02666 25.7865 6.12242 25.3772C5.21817 24.968 4.4113 24.3711 3.75535 23.6262C3.09939 22.8813 2.60934 22.0054 2.31773 21.0566C2.02611 20.1079 1.9396 19.108 2.06392 18.1232C2.18824 17.1385 2.52055 16.1915 3.03881 15.345C3.55707 14.4985 4.24942 13.7719 5.06993 13.2134C5.89044 12.6549 6.82034 12.2772 7.79793 12.1055C8.77552 11.9338 9.77844 11.972 10.7402 12.2175" stroke="#5A5A5A" stroke-width="1.5" stroke-linecap="round" stroke-linejoin="round"/>
<path d="M15 17L18 20L24 14" stroke="#5A5A5A" stroke-width="1.5" stroke-linecap="round" stroke-linejoin="round"/>
</g>
<defs>
<clipPath id="clip0_9_1376">
<rect width="32" height="32" fill="white"/>
</clipPath>
</defs>
</svg>
