<svg width="32" height="32" viewBox="0 0 32 32" fill="none" xmlns="http://www.w3.org/2000/svg">
<g clip-path="url(#clip0_97_1588)">
<path d="M16 21.75C16.4142 21.75 16.75 22.0858 16.75 22.5C16.75 22.9142 16.4142 23.25 16 23.25C15.5858 23.25 15.25 22.9142 15.25 22.5C15.25 22.0858 15.5858 21.75 16 21.75Z" fill="black" stroke="#5A5A5A" stroke-width="1.5"/>
<path d="M16 18V17C18.2088 17 20 15.4325 20 13.5C20 11.5675 18.2088 10 16 10C13.7912 10 12 11.5675 12 13.5V14" stroke="#5A5A5A" stroke-width="1.5" stroke-linecap="round" stroke-linejoin="round"/>
<path d="M16 28C22.6274 28 28 22.6274 28 16C28 9.37258 22.6274 4 16 4C9.37258 4 4 9.37258 4 16C4 22.6274 9.37258 28 16 28Z" stroke="#5A5A5A" stroke-width="1.5" stroke-linecap="round" stroke-linejoin="round"/>
</g>
<defs>
<clipPath id="clip0_97_1588">
<rect width="32" height="32" fill="white"/>
</clipPath>
</defs>
</svg>
