<svg width="16" height="16" viewBox="0 0 16 16" fill="none" xmlns="http://www.w3.org/2000/svg">
<g clip-path="url(#clip0_122_1782)">
<path d="M10.25 8.10369L12.4862 9.44932C12.5435 9.48462 12.6099 9.50222 12.6771 9.49993C12.7443 9.49763 12.8093 9.47553 12.864 9.4364C12.9186 9.39727 12.9606 9.34286 12.9844 9.28C13.0083 9.21714 13.0131 9.14863 12.9981 9.08307L12.39 6.57119L14.38 4.89119C14.4311 4.84809 14.4683 4.79072 14.4866 4.72641C14.505 4.6621 14.5038 4.59378 14.4831 4.53017C14.4624 4.46656 14.4233 4.41056 14.3706 4.36933C14.318 4.3281 14.2542 4.3035 14.1875 4.29869L11.5756 4.09182L10.5694 1.70807C10.5427 1.64629 10.4986 1.59366 10.4424 1.55668C10.3862 1.5197 10.3204 1.5 10.2531 1.5C10.1858 1.5 10.12 1.5197 10.0638 1.55668C10.0076 1.59366 9.96349 1.64629 9.93687 1.70807L8.93062 4.09182L6.31874 4.29869C6.25177 4.30294 6.18761 4.32713 6.1345 4.36814C6.0814 4.40916 6.04178 4.46513 6.02074 4.52884C5.9997 4.59256 5.99821 4.66112 6.01645 4.72569C6.0347 4.79027 6.07184 4.8479 6.12312 4.89119L8.11312 6.57119L7.49999 9.08307C7.48505 9.14863 7.48982 9.21714 7.51368 9.28C7.53755 9.34286 7.57946 9.39727 7.63414 9.4364C7.68883 9.47553 7.75385 9.49763 7.82105 9.49993C7.88825 9.50222 7.95464 9.48462 8.01187 9.44932L10.25 8.10369Z" stroke="black" stroke-width="1.5" stroke-linecap="round" stroke-linejoin="round"/>
<path d="M5.15312 7.34668L1.5 10.9998" stroke="black" stroke-width="1.5" stroke-linecap="round" stroke-linejoin="round"/>
<path d="M5.82875 11.1714L2.5 14.5001" stroke="black" stroke-width="1.5" stroke-linecap="round" stroke-linejoin="round"/>
<path d="M10.3925 11.1074L7 14.4999" stroke="black" stroke-width="1.5" stroke-linecap="round" stroke-linejoin="round"/>
</g>
<defs>
<clipPath id="clip0_122_1782">
<rect width="16" height="16" fill="white"/>
</clipPath>
</defs>
</svg>
