<svg width="24" height="24" viewBox="0 0 24 24" fill="none" xmlns="http://www.w3.org/2000/svg">
<g clip-path="url(#clip0_9_1134)">
<path d="M20.25 12V16.5" stroke="#5A5A5A" stroke-width="1.5" stroke-linecap="round" stroke-linejoin="round"/>
<path d="M18 14.25H22.5" stroke="#5A5A5A" stroke-width="1.5" stroke-linecap="round" stroke-linejoin="round"/>
<path d="M7.5 3.75V8.25" stroke="#5A5A5A" stroke-width="1.5" stroke-linecap="round" stroke-linejoin="round"/>
<path d="M5.25 6H9.75" stroke="#5A5A5A" stroke-width="1.5" stroke-linecap="round" stroke-linejoin="round"/>
<path d="M15.75 17.25V20.25" stroke="#5A5A5A" stroke-width="1.5" stroke-linecap="round" stroke-linejoin="round"/>
<path d="M14.25 18.75H17.25" stroke="#5A5A5A" stroke-width="1.5" stroke-linecap="round" stroke-linejoin="round"/>
<path d="M13.5 7.5L16.5 10.5" stroke="#5A5A5A" stroke-width="1.5" stroke-linecap="round" stroke-linejoin="round"/>
<path d="M17.03 3.96951L3.96929 17.0302C3.6764 17.3231 3.6764 17.798 3.96929 18.0909L5.90831 20.0299C6.20121 20.3228 6.67608 20.3228 6.96897 20.0299L20.0297 6.96919C20.3226 6.6763 20.3226 6.20143 20.0297 5.90853L18.0907 3.96951C17.7978 3.67662 17.3229 3.67662 17.03 3.96951Z" stroke="#5A5A5A" stroke-width="1.5" stroke-linecap="round" stroke-linejoin="round"/>
</g>
<defs>
<clipPath id="clip0_9_1134">
<rect width="24" height="24" fill="white"/>
</clipPath>
</defs>
</svg>
